# xmcd CD database file
#
# Track frame offsets:
#	150
#	33182
#	44345
#	82307
#	93505
#	129585
#	179090
#	193657
#	203305
#	218455
#
# Disc length: 3486 seconds
#
# Revision: 0
# Processed by: cddbd v1.5.2PL0 Copyright (c) Steve Scherf et al.
# Submitted via: CDex 1.51
#
DISCID=870d9c0a
DTITLE=Greatest Jazz Artists - A Declaration of Love with Jazz
DYEAR=1900
DGENRE=Jazz
TTITLE0=Lee Morgan - Whisper Not
TTITLE1=Duke Ellington - Stardust
TTITLE2=Dexter Gordon - Manha De Carnaval
TTITLE3=Peggy Lee - Strangers In The Night
TTITLE4=Joe Henderson - Blue Bossa
TTITLE5=Cannonball Adderley - Autumn Leaves
TTITLE6=Ike Quebec - Loie
TTITLE7=Nancy Wilson - Moon River
TTITLE8=Joe Pass - DJango
TTITLE9=Sonny Clark - Deep Night
EXTD=
EXTT0=
EXTT1=
EXTT2=
EXTT3=
EXTT4=
EXTT5=
EXTT6=
EXTT7=
EXTT8=
EXTT9=
PLAYORDER=
